<svg xmlns="http://www.w3.org/2000/svg" viewBox="153.31 118.9 243.37 232.21">
  <g  fill-rule="none" stroke-miterlimit="10">
    <g fill-rule="nonzero">
      <path  fill="#818cf8" d="M162.423 329.47c-4.7 0-8.234 2.394-8.234 6.423 0 2.92 1.285 5.11 6.424 6.745 2.482.759 3.036 1.197 3.036 2.248 0 .73-.525 1.43-2.131 1.43-1.84 0-3.475-.73-4.934-1.985l-3.27 3.591c1.664 1.606 4.38 3.183 8.496 3.183 5.518 0 8.847-2.803 8.847-6.832 0-3.592-1.664-5.519-6.044-6.95-2.745-.905-3.475-1.109-3.475-2.014 0-.672.526-1.139 1.87-1.139 1.576 0 2.977.555 4.291 1.606l2.92-3.445c-1.898-1.84-4.438-2.862-7.796-2.862zM226.982 330.082h-16.585v4.993h4.76v15.388h6.744v-15.388h4.38zM273.378 350.463h7.124l-5.781-20.38h-8l-5.81 20.38h7.065l.613-3.68h4.146zm-4-8.351 1.255-7.387 1.285 7.387zM333.707 350.463h7.416l-4.818-8.176c2.365-1.577 3.387-3.066 3.387-5.577 0-4.613-2.978-6.628-8.964-6.628h-7.941v20.38h6.744v-6.949h.672zm-4.176-15.796h1.022c1.43 0 2.307.642 2.307 2.043 0 1.577-.643 2.336-2.015 2.336h-1.314zM388.453 329.47c-4.701 0-8.234 2.394-8.234 6.423 0 2.92 1.285 5.11 6.424 6.745 2.481.759 3.036 1.197 3.036 2.248 0 .73-.525 1.43-2.131 1.43-1.84 0-3.475-.73-4.935-1.985l-3.27 3.591c1.664 1.606 4.38 3.183 8.497 3.183 5.518 0 8.847-2.803 8.847-6.832 0-3.592-1.665-5.519-6.044-6.95-2.745-.905-3.475-1.109-3.475-2.014 0-.672.526-1.139 1.869-1.139 1.576 0 2.978.555 4.292 1.606l2.92-3.445c-1.898-1.84-4.438-2.862-7.796-2.862z"/>
    </g>
    <g fill-rule="nonzero">
      <path fill="#fff" d="M182.752 312.997h-29.439v-88.442h64.84v29.438h-35.401v5.964h35.402v17.638h-35.402zM284.01 283.558v29.439h-59.004v-88.442h29.438v59.003zM320.3 224.428v88.569h-29.566v-88.569h5.964zM376.638 268.078l20.049 44.919H364.33l-3.807-8.629-3.806 8.629H324.36l20.048-44.92-19.414-43.522h32.23l3.3 7.36 3.298-7.36h32.23z"/>
    </g>
    <path fill="#4f46e5" d="M367.445 141.818c2.74-1.767 5.752-3.106 8.649-4.633 0-.146 0-.292-.021-.45-5.041-1.338-10.019-3.011-15.133-3.91-4.454-.785-9.056-.827-13.605-.942-1.37-.037-2.743.152-4.117.34-.956.132-1.913.263-2.869.32-.763.041-1.673-.241-2.321-.68-7.739-5.24-15.76-9.893-24.879-12.33-.732-.188-1.453-.418-2.185-.638h-1.339c.063.272.052.617.21.826 3.66 4.758 6.42 9.914 7.006 15.99.042.46-.575 1.307-1.025 1.422-8.784 2.259-17.694 4.13-26.395 6.693-19.577 5.783-38.254 13.919-56.638 22.703-16.983 8.126-33.454 17.224-49.642 26.845-3.012 1.778-5.982 3.629-9.235 5.605.22.034.38.066.498.091.18.038.266.056.329.024 11.304-5.05 22.536-10.29 33.945-15.11 8.377-3.536 16.879-6.872 25.527-9.664 14.808-4.779 29.658-9.464 45.114-11.796a780.174 780.174 0 0 1 18.426-2.562c2.625-.324 5.292-.44 7.938-.47a464.29 464.29 0 0 1 14.787.062c.418.01 1.024.732 1.181 1.234 1.694 5.323 3.19 10.72 4.999 16 1.401 4.068 3.399 7.875 6.567 11.44 2.165-9.6 6.014-18.038 11.755-25.463 9.401.889 17.997 4.13 26.426 7.937.157-.167.303-.335.45-.502-4.56-7.1-9.109-14.201-13.804-21.511 2.907-2.154 6.034-4.696 9.401-6.87z" fill-rule="evenodd"/>
  </g>
</svg>